HIERARCHY
ROOT root     
{
	OFFSET 0.0000 0.0000 0.0000
	CHANNELS 6 Xposition Yposition Zposition Zrotation Yrotation Xrotation
	JOINT pelvis   
	{
		OFFSET 0.0000 0.0000 0.0000
		CHANNELS 3 Zrotation Yrotation Xrotation
		JOINT thorax   
		{
			OFFSET 0.0000 23.0750 -5.0000
			CHANNELS 3 Zrotation Yrotation Xrotation
			JOINT rclavicle
			{
				OFFSET 0.0000 28.0009 0.0000
				CHANNELS 3 Zrotation Yrotation Xrotation
				JOINT rhumerus 
				{
					OFFSET -18.5725 5.5939 0.0000
					CHANNELS 3 Zrotation Yrotation Xrotation
					JOINT rradius  
					{
						OFFSET -24.8459 0.0000 0.0000
						CHANNELS 3 Zrotation Yrotation Xrotation
						JOINT rhand    
						{
							OFFSET -24.5477 0.0000 0.0000
							CHANNELS 3 Zrotation Yrotation Xrotation
							End Site
							{
								OFFSET -8.1826 0.0000 0.0000
							}
						}
					}
				}
			}
			JOINT lclavicle
			{
				OFFSET 0.0000 28.0009 0.0000
				CHANNELS 3 Zrotation Yrotation Xrotation
				JOINT lhumerus 
				{
					OFFSET 18.5725 5.5939 0.0000
					CHANNELS 3 Zrotation Yrotation Xrotation
					JOINT lradius  
					{
						OFFSET 24.8459 0.0000 0.0000
						CHANNELS 3 Zrotation Yrotation Xrotation
						JOINT lhand    
						{
							OFFSET 24.5477 0.0000 0.0000
							CHANNELS 3 Zrotation Yrotation Xrotation
							End Site
							{
								OFFSET 8.1826 0.0000 0.0000
							}
						}
					}
				}
			}
			JOINT head     
			{
				OFFSET 0.0000 35.2030 0.0000
				CHANNELS 3 Zrotation Yrotation Xrotation
				End Site
				{
					OFFSET 0.0000 11.7343 0.0000
				}
			}
		}
		JOINT rfemur   
		{
			OFFSET -8.2817 0.0000 0.0000
			CHANNELS 3 Zrotation Yrotation Xrotation
			JOINT rtibia   
			{
				OFFSET 0.0000 -43.3627 0.0000
				CHANNELS 3 Zrotation Yrotation Xrotation
				JOINT rfoot    
				{
					OFFSET 0.0000 -38.2947 0.0000
					CHANNELS 3 Zrotation Yrotation Xrotation
					JOINT rtoes    
					{
						OFFSET 0.0000 0.0000 16.6054
						CHANNELS 3 Zrotation Yrotation Xrotation
						End Site
						{
							OFFSET 0.0000 0.0000 5.5351
						}
					}
				}
			}
		}
		JOINT lfemur   
		{
			OFFSET 8.2817 0.0000 0.0000
			CHANNELS 3 Zrotation Yrotation Xrotation
			JOINT ltibia   
			{
				OFFSET 0.0000 -43.3627 0.0000
				CHANNELS 3 Zrotation Yrotation Xrotation
				JOINT lfoot    
				{
					OFFSET 0.0000 -38.2947 0.0000
					CHANNELS 3 Zrotation Yrotation Xrotation
					JOINT ltoes    
					{
						OFFSET 0.0000 0.0000 16.6054
						CHANNELS 3 Zrotation Yrotation Xrotation
						End Site
						{
							OFFSET 0.0000 0.0000 5.5351
						}
					}
				}
			}
		}
	}
}
MOTION
Frames: 9
Frame Time: .0333333
23.97 81.447 5.7073 16.0061 -75.8706 10.7863 0 -0 0 0.238468 9.69869 12.0812 8.63395 -3.13385 6.86904e-06 27.1781 39.5851 -21.8548 -1.12579e-06 72.1512 -8.2023e-07 -26.6282 -3.55007 0.840397 -13.7191 12.2878 2.7633e-05 -57.0016 9.56797 23.3703 180 -53.222 180 11.4676 -4.15234 -0.417103 7.35991 1.39167 -29.7648 6.00503 -31.954 -50.9323 -0 -0 44.6064 -1.24037e-09 -6.88786 -0.0113001 0.00139996 -2.09613e-08 -69.0378 -8.5793 5.24572 -51.1797 -0 -0 42.6672 -1.16991e-05 11.5543 -1.61875 -0.330899 -2.98167e-07 -42.6661 
23.894 81.585 5.6617 15.9911 -75.2445 10.7715 0 -0 0 0.107259 10.4213 11.5752 7.64083 -2.9519 -2.19158e-07 23.9012 40.4767 -25.2109 -9.89814e-07 69.2083 -6.82925e-07 -26.726 -3.96168 0.941497 -13.6843 12.3942 5.12331e-05 -56.8716 9.62583 23.4331 180 -53.1528 180 11.3691 -4.16959 -0.415199 7.45365 1.29102 -29.9653 6.0873 -32.5179 -50.6475 -0 -0 44.2514 3.5762e-08 -6.93566 0.0981999 -0.0119001 -3.36212e-08 -69.0415 -8.36733 4.59988 -50.797 -0 -0 42.0586 -3.15222e-06 11.6045 -1.22049 -0.250602 -1.04804e-06 -42.7193 
23.823 81.72 5.6211 16.0432 -74.6014 10.7004 0 -0 0 -0.0359002 11.1371 11.1059 6.63176 -2.80744 -4.01971e-06 20.5481 41.2049 -28.6645 -0 66.0773 -0 -26.8071 -4.24347 1.01161 -13.6417 12.4888 -3.10559e-06 -56.7671 9.70652 23.4535 180 -53.0742 180 11.2758 -4.19719 -0.414503 7.53875 1.19368 -30.1762 6.16958 -33.1176 -50.3881 -0 -0 43.9118 -1.26504e-07 -6.95985 0.205007 -0.0250004 -1.30451e-07 -69.0559 -8.16466 3.92062 -50.4192 -0 -0 41.4435 3.6132e-06 11.6686 -0.814906 -0.168306 -2.06746e-06 -42.7539 
23.756 81.852 5.5838 16.1136 -73.9491 10.6155 0 -0 0 -0.177593 11.8355 10.6767 5.60052 -2.7028 8.79889e-07 17.1599 41.7914 -32.2066 -7.9604e-07 62.7538 -4.85454e-07 -26.8437 -4.33194 1.03419 -13.595 12.5753 0.000120988 -56.6897 9.81022 23.4276 180 -52.9889 180 11.1925 -4.23264 -0.414899 7.60402 1.09491 -30.3936 6.25855 -33.7472 -50.1535 -0 -0 43.5866 4.43499e-07 -6.96771 0.308293 -0.0376993 3.84134e-07 -69.0782 -7.96753 3.21735 -50.0505 -0 -0 40.8295 7.94058e-07 11.7387 -0.405007 -0.0840988 -4.0562e-07 -42.7742 
23.695 81.98 5.5496 16.2064 -73.28 10.5138 0 -0 0 -0.317072 12.5091 10.2887 4.5433 -2.64193 -8.48072e-07 13.7845 42.2587 -35.8339 -0 59.2286 -0 -26.8105 -4.17093 0.994498 -13.5451 12.6582 7.26133e-05 -56.6402 9.93894 23.3605 180 -52.8969 180 11.1243 -4.27251 -0.416291 7.64434 0.986392 -30.607 6.35185 -34.4045 -49.9414 -0 -0 43.2789 -2.34521e-07 -6.96406 0.406896 -0.0496996 3.29107e-07 -69.1085 -7.78069 2.49912 -49.6934 -0 -0 40.2155 -3.82282e-08 11.8043 0.00799996 0.00169999 -1.4285e-08 -42.7858 
23.64 82.102 5.5166 16.2891 -72.5992 10.4269 0 -0 0 -0.441302 13.1464 9.94355 3.45183 -2.62154 -1.28411e-06 10.4529 42.6272 -39.5468 -0 55.5135 -0 -26.6938 -3.73633 0.886814 -13.5001 12.7551 -0.000125775 -56.6121 10.0767 23.2574 180 -52.8032 180 11.0784 -4.31008 -0.418203 7.65319 0.866888 -30.8094 6.45662 -35.0781 -49.7524 -0 -0 42.9845 4.85728e-07 -6.95743 0.500792 -0.0610999 3.43259e-07 -69.1408 -7.60013 1.77886 -49.3538 -0 -0 39.6137 1.10115e-06 11.8551 0.4207 0.0883001 3.15001e-07 -42.7955 
23.591 82.219 5.4867 16.4098 -71.9068 10.3157 0 -0 0 -0.572824 13.7578 9.62929 2.32141 -2.67099 5.25453e-07 7.23194 42.9589 -43.3926 -0 51.5664 -0 -26.4502 -2.93824 0.690601 -13.4441 12.8275 -8.13916e-05 -56.6174 10.2704 23.1033 180 -52.6995 180 11.0434 -4.35395 -0.421093 7.63729 0.709359 -30.9911 6.55781 -35.7639 -49.593 -0 -0 42.7141 7.71745e-07 -6.94952 0.584793 -0.0713005 6.64138e-07 -69.1708 -7.44685 1.06592 -49.0339 -0 -0 39.0175 2.15245e-06 11.8806 0.832515 0.1751 -3.02911e-07 -42.7989 
23.548 82.329 5.4558 16.5025 -71.206 10.2411 0 -0 0 -0.684883 14.3234 9.34974 1.14239 -2.77571 -4.00481e-07 4.12074 43.2618 -47.3914 -0 47.4251 -0 -26.0936 -1.82721 0.423396 -13.3933 12.9279 8.62755e-06 -56.6442 10.468 22.9234 180 -52.6026 180 11.0286 -4.3919 -0.424197 7.592 0.527436 -31.1447 6.67513 -36.4501 -49.4595 -0 -0 42.4584 8.4365e-08 -6.94997 0.661207 -0.0805992 -1.28239e-07 -69.1934 -7.30536 0.377383 -48.7424 -0 -0 38.4432 -2.37823e-06 11.8695 1.23795 0.260206 2.94065e-06 -42.8104 
23.513 82.432 5.4237 16.5765 -70.5041 10.1989 0 -0 0 -0.78706 14.8443 9.09677 -0.0892992 -2.95416 -3.61038e-08 1.14047 43.5898 -51.6257 -0 43.0751 -0 -25.6076 -0.383102 0.0871003 -13.3424 13.0469 9.17963e-05 -56.6945 10.6791 22.7175 180 -52.5093 -180 11.0262 -4.42695 -0.427504 7.52703 0.311138 -31.2674 6.80429 -37.1273 -49.3561 -0 -0 42.2209 4.31678e-07 -6.96165 0.72709 -0.0888002 -1.53621e-07 -69.2071 -7.18381 -0.275202 -48.4831 -0 -0 37.8909 -1.57589e-06 11.8136 1.63456 0.341808 3.52369e-06 -42.8281 
